<?xml version="1.0" standalone="no"?>
<!DOCTYPE svg PUBLIC "-//W3C//DTD SVG 20010904//EN"
 "http://www.w3.org/TR/2001/REC-SVG-20010904/DTD/svg10.dtd">
<svg version="1.0" xmlns="http://www.w3.org/2000/svg"
 width="230.000000pt" height="219.000000pt" viewBox="0 0 230.000000 219.000000"
 preserveAspectRatio="xMidYMid meet">

<g transform="translate(0.000000,219.000000) scale(0.100000,-0.100000)"
fill="#000" stroke="none">
<path d="M1054 2077 c-60 -35 -233 -134 -384 -221 -309 -178 -330 -192 -330
-211 0 -18 193 -135 222 -135 13 0 717 401 800 456 24 15 35 29 32 39 -5 12
-210 135 -225 135 -3 0 -54 -28 -115 -63z"/>
<path d="M1305 1872 c-82 -49 -226 -132 -320 -186 -308 -177 -345 -200 -345
-213 0 -22 191 -133 228 -133 22 0 161 76 492 270 96 57 195 114 220 128 86
48 120 72 120 85 0 16 -201 137 -227 137 -10 -1 -85 -40 -168 -88z"/>
<path d="M1460 1609 c-162 -94 -343 -198 -402 -232 -107 -61 -122 -75 -110
-94 13 -18 201 -123 221 -123 11 0 192 100 403 221 403 233 438 255 438 269 0
16 -203 130 -230 130 -14 0 -152 -73 -320 -171z"/>
<path d="M267 1533 c-11 -10 -8 -942 3 -962 8 -16 55 -45 226 -141 16 -10 91
-53 165 -95 339 -197 425 -245 442 -245 15 0 17 13 17 128 0 88 -4 133 -12
144 -7 8 -130 82 -273 163 -143 81 -275 159 -292 172 l-33 24 0 195 c0 141 3
194 12 194 11 0 116 -57 288 -157 247 -144 284 -164 296 -159 19 7 20 258 2
274 -26 21 -812 472 -823 472 -7 0 -15 -3 -18 -7z"/>
<path d="M1965 1496 c-38 -23 -117 -70 -175 -103 -520 -301 -560 -325 -565
-346 -3 -12 -4 -231 -3 -487 3 -421 5 -465 19 -468 16 -3 175 84 212 116 16
14 17 44 17 361 l0 347 33 19 c140 84 304 175 314 175 10 0 13 -72 13 -335 0
-300 2 -335 16 -335 19 0 207 105 223 124 8 9 10 162 9 492 -3 554 7 514 -113
440z"/>
</g>
</svg>
